<?xml version="1.0" encoding="UTF-8" standalone="no"?>
<!-- Created with Inkscape (http://www.inkscape.org/) -->

<svg
   width="210mm"
   height="297mm"
   viewBox="0 0 210 297"
   version="1.1"
   id="svg5"
   sodipodi:docname="eaton-logo-reversed-vector.svg"
   inkscape:version="1.1 (c68e22c387, 2021-05-23)"
   xmlns:inkscape="http://www.inkscape.org/namespaces/inkscape"
   xmlns:sodipodi="http://sodipodi.sourceforge.net/DTD/sodipodi-0.dtd"
   xmlns="http://www.w3.org/2000/svg"
   xmlns:svg="http://www.w3.org/2000/svg">
  <sodipodi:namedview
     id="namedview7"
     pagecolor="#505050"
     bordercolor="#ffffff"
     borderopacity="1"
     inkscape:pageshadow="0"
     inkscape:pageopacity="0"
     inkscape:pagecheckerboard="1"
     inkscape:document-units="mm"
     showgrid="false"
     showborder="false"
     inkscape:zoom="1.4467452"
     inkscape:cx="-124.76281"
     inkscape:cy="785.55642"
     inkscape:window-width="1920"
     inkscape:window-height="1001"
     inkscape:window-x="-9"
     inkscape:window-y="61"
     inkscape:window-maximized="1"
     inkscape:current-layer="layer1" />
  <defs
     id="defs2" />
  <g
     inkscape:label="Layer 1"
     inkscape:groupmode="layer"
     id="layer1">
    <path
       style="fill:#ffffff;stroke-width:0.0115229"
       d="m -86.880377,211.21163 0.0031,-5.2343 4.564013,-0.003 4.564005,-0.003 -0.04519,0.15269 c -0.0502,0.16983 -0.06107,0.20604 -0.145627,0.48686 -0.09304,0.30897 -0.15094,0.49862 -0.18645,0.61072 -0.01805,0.0571 -0.04565,0.14778 -0.06131,0.20165 -0.01565,0.0539 -0.09038,0.30277 -0.166115,0.5531 -0.109732,0.36272 -0.26044,0.86623 -0.285394,0.95353 -0.0031,0.0115 -0.481845,0.0144 -2.343365,0.0144 h -2.339255 l -0.0031,0.43211 c -0.0023,0.28247 7.71e-4,0.43213 0.0084,0.43217 0.0062,0 1.003573,0 2.216083,-1.3e-4 2.096667,-1.3e-4 2.204262,7.7e-4 2.198447,0.0201 -0.0031,0.0111 -0.04303,0.14208 -0.08808,0.29101 -0.09745,0.32198 -0.12924,0.42823 -0.174066,0.58191 -0.01851,0.0634 -0.0546,0.18264 -0.08024,0.26503 -0.02568,0.0824 -0.05907,0.19127 -0.07426,0.24197 -0.01519,0.0507 -0.04904,0.1622 -0.07518,0.24775 -0.02614,0.0856 -0.05683,0.18927 -0.06817,0.23046 -0.01134,0.0412 -0.05012,0.17083 -0.08621,0.28807 -0.03609,0.11725 -0.08321,0.27281 -0.104765,0.34569 -0.02159,0.0729 -0.05066,0.17011 -0.0647,0.21606 l -0.02552,0.0835 h -1.787584 c -0.98317,0 -1.789736,0.002 -1.792381,0.005 -0.0023,0.002 -0.0031,0.20487 -0.0015,0.4494 l 0.0031,0.4446 h 1.654511 c 1.571122,0 1.654103,7.7e-4 1.646415,0.0202 -0.0128,0.0318 -0.293467,0.95 -0.368999,1.20704 -0.05645,0.19202 -0.100539,0.33906 -0.14518,0.48395 -0.02537,0.0824 -0.06184,0.20166 -0.08093,0.26503 -0.01912,0.0634 -0.0394,0.12819 -0.04511,0.14404 -0.0054,0.0158 -0.03084,0.0988 -0.05598,0.18437 -0.02506,0.0856 -0.07704,0.25894 -0.115515,0.38528 -0.03848,0.12635 -0.06994,0.23135 -0.06994,0.23334 0,0.002 -1.345598,0.004 -2.990223,0.004 h -2.990216 l 0.0031,-5.2343 z m 9.943368,5.122 c 0.0684,-0.22536 0.253145,-0.82865 0.274366,-0.89596 0.01195,-0.038 0.06655,-0.21692 0.12119,-0.39754 0.126087,-0.41664 0.152845,-0.50416 0.225439,-0.73747 0.03254,-0.10457 0.06315,-0.20569 0.06794,-0.2247 0.01072,-0.042 0.07596,-0.2548 0.10249,-0.33417 l 0.01928,-0.0576 1.648296,-0.003 1.648296,-0.003 0.07179,0.25066 c 0.03948,0.13787 0.08492,0.29734 0.100963,0.35438 0.01604,0.0571 0.04681,0.16334 0.06832,0.23621 0.02151,0.0729 0.06994,0.24141 0.107618,0.3745 0.03763,0.13309 0.08236,0.28866 0.09935,0.34569 0.01696,0.0571 0.04295,0.14779 0.05776,0.20166 0.01473,0.0539 0.06655,0.23535 0.115122,0.40329 0.122493,0.4237 0.166825,0.58049 0.166971,0.59046 1.31e-4,0.005 -1.109001,0.009 -2.464601,0.009 l -2.464717,1.7e-4 0.03408,-0.1124 z m 7.231621,-3.63554 -0.0031,-3.74784 -1.500864,-0.003 -1.500864,-0.003 v -1.48102 c 0,-1.17421 0.0031,-1.48215 0.01442,-1.48648 0.0079,-0.003 2.132609,-0.004 4.721523,-0.002 2.588922,0.002 4.691573,0.008 4.672557,0.0126 -0.510161,0.14367 -1.026892,0.38601 -1.463411,0.68632 -0.06971,0.048 -0.13453,0.0936 -0.144038,0.1015 -0.0095,0.008 -0.06963,0.0546 -0.133683,0.10385 -0.258365,0.19881 -0.575306,0.51019 -0.812481,0.79823 -0.03393,0.0412 -0.06439,0.0775 -0.0677,0.0807 -0.0031,0.003 -0.02128,0.0265 -0.03995,0.0518 -0.01866,0.0254 -0.03724,0.0487 -0.04133,0.0518 -0.0039,0.003 -0.03023,0.0395 -0.05799,0.0807 -0.02776,0.0412 -0.06755,0.0982 -0.08835,0.12676 -0.05891,0.0807 -0.0391,0.0502 -0.182001,0.28066 -0.111721,0.1802 -0.254641,0.44948 -0.334183,0.62964 -0.02938,0.0666 -0.06046,0.13655 -0.06917,0.15557 -0.05999,0.13192 -0.193082,0.50629 -0.245835,0.69138 -0.145056,0.50897 -0.212545,0.92077 -0.24494,1.49471 -0.0145,0.25667 -0.0039,0.6649 0.02568,0.96283 0.04812,0.48998 0.200901,1.15137 0.340374,1.47352 0.0086,0.02 0.01573,0.0406 0.01573,0.0459 0,0.005 0.01134,0.0382 0.02529,0.0732 0.204518,0.51479 0.400276,0.88104 0.699156,1.30808 0.09082,0.12976 0.225022,0.30756 0.258073,0.34191 0.0081,0.008 0.02552,0.0293 0.03871,0.0463 0.199552,0.25865 0.652766,0.6977 0.880209,0.85274 0.02707,0.0184 -0.10977,0.0196 -2.365172,0.0202 l -2.393882,6e-4 z m 11.260782,-1.48939 v -5.23724 l 2.465611,1.8e-4 2.465612,1.8e-4 0.02306,0.0777 c 0.01265,0.0427 0.04935,0.16841 0.08146,0.27933 0.03216,0.11091 0.07349,0.2509 0.09182,0.31111 0.04349,0.14262 0.138802,0.46852 0.149976,0.51278 0.0085,0.0335 0.122956,0.42397 0.224683,0.76627 0.0273,0.0919 0.07079,0.23968 0.09668,0.3284 0.06177,0.21189 0.274637,0.93721 0.300986,1.02555 0.01134,0.038 0.04411,0.14951 0.07287,0.24774 0.02869,0.0982 0.06609,0.22527 0.083,0.28231 0.01696,0.0571 0.0347,0.11926 0.0394,0.13828 0.0083,0.0334 0.0826,0.28643 0.150439,0.51277 0.01804,0.0602 0.0637,0.21577 0.101488,0.34569 0.147902,0.5087 0.282548,0.96824 0.320749,1.09468 0.02205,0.0729 0.04966,0.16881 0.06146,0.21317 0.01712,0.0645 0.112739,0.38952 0.133042,0.45228 0.0023,0.008 0.01002,0.0144 0.0165,0.0144 0.0081,0 0.0128,-1.04569 0.01473,-3.29844 l 0.0031,-3.29845 h 1.549839 1.549831 l 0.0031,5.2343 0.0031,5.2343 h -2.488483 -2.488476 l -0.0229,-0.0778 c -0.0694,-0.23597 -0.112469,-0.38382 -0.15704,-0.5387 -0.06323,-0.21982 -0.121876,-0.42092 -0.16125,-0.5531 -0.01696,-0.0571 -0.03493,-0.11926 -0.03987,-0.13828 -0.0046,-0.019 -0.03347,-0.11753 -0.06331,-0.21893 -0.02992,-0.1014 -0.06655,-0.22845 -0.08141,-0.28232 -0.01488,-0.0539 -0.04064,-0.14201 -0.0573,-0.19589 -0.01666,-0.0539 -0.06323,-0.21202 -0.103492,-0.35144 -0.04033,-0.13943 -0.105167,-0.3624 -0.144155,-0.49549 -0.03902,-0.13309 -0.07503,-0.25754 -0.08015,-0.27656 -0.0054,-0.019 -0.03902,-0.13568 -0.07542,-0.25926 -0.0364,-0.12358 -0.07782,-0.26618 -0.09213,-0.31688 -0.02591,-0.0919 -0.07754,-0.2684 -0.190398,-0.65105 -0.0327,-0.1109 -0.06223,-0.21202 -0.06555,-0.2247 -0.01149,-0.0436 -0.223002,-0.77219 -0.25087,-0.86421 -0.03663,-0.12091 -0.09604,-0.3266 -0.121499,-0.4206 -0.01118,-0.0412 -0.04951,-0.17342 -0.08519,-0.29383 -0.0357,-0.12042 -0.07542,-0.25523 -0.08824,-0.29959 -0.02668,-0.0924 -0.03485,-0.11047 -0.05097,-0.11324 -0.0077,-0.002 -0.01249,1.1016 -0.01442,3.28493 l -0.0031,3.28692 h -1.538295 -1.538295 v -5.23727 z m -3.341657,2.54115 c -0.344022,-0.0449 -0.705795,-0.18847 -0.929128,-0.3687 -0.0199,-0.016 -0.05097,-0.0404 -0.06917,-0.0543 -0.04766,-0.0362 -0.209399,-0.19553 -0.267033,-0.26294 -0.15175,-0.17746 -0.303801,-0.45548 -0.381245,-0.69713 -0.174428,-0.5442 -0.144123,-1.111 0.08748,-1.63626 0.05506,-0.12483 0.164381,-0.32298 0.212993,-0.38602 0.0046,-0.006 0.03532,-0.0473 0.06763,-0.091 0.03231,-0.0437 0.08297,-0.10503 0.112615,-0.13625 0.02961,-0.0312 0.05568,-0.0617 0.05783,-0.0678 0.0023,-0.006 0.06069,-0.0601 0.129927,-0.11994 0.312591,-0.27022 0.643388,-0.42335 1.03485,-0.479 0.105606,-0.015 0.448888,-0.008 0.519376,0.0103 0.02221,0.005 0.06886,0.017 0.103701,0.0249 0.08729,0.0197 0.255914,0.0779 0.344377,0.11863 0.09439,0.0435 0.263594,0.14613 0.352505,0.21378 0.07202,0.0548 0.36323,0.34185 0.36323,0.35804 0,0.005 0.01319,0.0243 0.02923,0.0427 0.03007,0.0344 0.101141,0.13695 0.131994,0.19032 0.05776,0.1 0.138378,0.25235 0.138378,0.26156 0,0.006 0.01357,0.0413 0.03007,0.0785 0.07017,0.15789 0.145064,0.44088 0.166671,0.62984 0.02676,0.23439 0.01488,0.51567 -0.031,0.73418 -0.04434,0.21091 -0.140091,0.45892 -0.244732,0.63377 -0.01326,0.0222 -0.03416,0.0584 -0.0465,0.0807 -0.04472,0.0807 -0.190607,0.25851 -0.300878,0.36677 -0.143529,0.1409 -0.370788,0.29997 -0.542471,0.37972 -0.263771,0.12251 -0.497831,0.17604 -0.79419,0.18162 -0.110911,0.002 -0.235355,-6e-4 -0.276556,-0.006 z m -13.637675,-2.4518 c 0.0046,-0.0111 0.03663,-0.1161 0.07164,-0.23334 0.03501,-0.11725 0.11297,-0.37651 0.17321,-0.57615 0.06023,-0.19963 0.121144,-0.40446 0.13534,-0.45515 0.01419,-0.0507 0.04689,-0.16219 0.07264,-0.24775 0.02576,-0.0856 0.08387,-0.28001 0.129117,-0.43211 0.04527,-0.1521 0.118599,-0.3984 0.162978,-0.54734 0.04442,-0.14894 0.106623,-0.35894 0.138316,-0.46668 0.03169,-0.10774 0.06508,-0.2168 0.07418,-0.24236 0.0091,-0.0256 0.01658,-0.0562 0.01658,-0.0682 0,-0.0119 0.0031,-0.019 0.0062,-0.0156 0.0062,0.006 0.09864,0.32728 0.160571,0.55661 0.01712,0.0634 0.05945,0.21635 0.09418,0.33993 0.0347,0.12359 0.08654,0.31025 0.115229,0.41482 0.02869,0.10458 0.06971,0.25236 0.09122,0.32841 0.05799,0.2053 0.132857,0.47492 0.212784,0.76628 0.09934,0.36215 0.164388,0.59586 0.230111,0.82677 l 0.02051,0.072 h -0.956295 c -0.906103,0 -0.955872,-7.7e-4 -0.94833,-0.0202 z"
       id="path300"
       inkscape:export-filename="C:\Users\E0646641\OneDrive - Eaton\Pictures\Eaton-logo-reversed.png"
       inkscape:export-xdpi="96"
       inkscape:export-ydpi="96" />
  </g>
</svg>
